<svg width="21" height="20" viewBox="0 0 21 20" fill="none" xmlns="http://www.w3.org/2000/svg">
<path d="M20.8043 17.2658L12.1497 1.19352C11.5362 0.0539844 9.90211 0.0539844 9.28816 1.19352L0.634022 17.2658C0.500829 17.5132 0.434052 17.7909 0.44021 18.0717C0.446367 18.3526 0.525248 18.6271 0.669153 18.8684C0.813058 19.1098 1.01707 19.3096 1.26128 19.4486C1.50548 19.5875 1.78154 19.6607 2.0625 19.6611H19.3733C19.6545 19.6612 19.9309 19.5883 20.1754 19.4495C20.42 19.3107 20.6243 19.1109 20.7686 18.8695C20.9128 18.6282 20.9919 18.3535 20.9981 18.0724C21.0044 17.7913 20.9376 17.5134 20.8043 17.2658ZM10.7192 17.1729C10.5183 17.1729 10.3219 17.1133 10.1549 17.0017C9.98791 16.8901 9.85773 16.7315 9.78086 16.5459C9.70399 16.3603 9.68388 16.1561 9.72307 15.9591C9.76226 15.7621 9.85898 15.5811 10.001 15.4391C10.1431 15.297 10.324 15.2003 10.521 15.1611C10.7181 15.1219 10.9223 15.142 11.1078 15.2189C11.2934 15.2958 11.452 15.426 11.5636 15.593C11.6752 15.76 11.7348 15.9564 11.7348 16.1572C11.7348 16.4266 11.6278 16.6849 11.4373 16.8754C11.2469 17.0659 10.9885 17.1729 10.7192 17.1729ZM11.8221 6.9582L11.5307 13.1535C11.5307 13.369 11.4451 13.5757 11.2927 13.728C11.1403 13.8804 10.9336 13.966 10.7182 13.966C10.5027 13.966 10.296 13.8804 10.1436 13.728C9.99126 13.5757 9.90566 13.369 9.90566 13.1535L9.61418 6.96074C9.60763 6.81276 9.63094 6.66497 9.68272 6.52619C9.7345 6.38741 9.81369 6.26048 9.91558 6.15295C10.0175 6.04543 10.1399 5.95952 10.2757 5.90034C10.4115 5.84117 10.5579 5.80994 10.706 5.80852H10.7166C10.8658 5.80844 11.0134 5.83858 11.1505 5.89711C11.2877 5.95565 11.4116 6.04136 11.5147 6.14909C11.6178 6.25682 11.698 6.38432 11.7505 6.52391C11.803 6.66349 11.8267 6.81227 11.8201 6.96125L11.8221 6.9582Z" fill="#F46B5D"/>
</svg>
